<svg xmlns="http://www.w3.org/2000/svg" viewBox="0 0 512 680" role="img" aria-labelledby="relay-stacked-title">
  <title id="relay-stacked-title">Relay</title>
  <style>
    .relay-ink { fill: #09090a; }
    @media (prefers-color-scheme: dark) { .relay-ink { fill: #f5f5f5; } }
  </style>
  <defs>
    <path id="relay-stacked-blade" d="M256 54c77.8 0 144.6 44.1 177.7 108.7-48.8-23.4-99.8-24.7-144.8-3.6-38.4 18-67.2 49.1-81.8 87.4-19.7-48.1-16.2-96.1 8.5-137.5 11.8-19.9 25.8-36.4 40.4-55Z"/>
    <mask id="relay-stacked-cutout">
      <rect width="512" height="512" fill="black"/>
      <g fill="white">
        <use href="#relay-stacked-blade"/>
        <use href="#relay-stacked-blade" transform="rotate(60 256 256)"/>
        <use href="#relay-stacked-blade" transform="rotate(120 256 256)"/>
        <use href="#relay-stacked-blade" transform="rotate(180 256 256)"/>
        <use href="#relay-stacked-blade" transform="rotate(240 256 256)"/>
        <use href="#relay-stacked-blade" transform="rotate(300 256 256)"/>
      </g>
      <g fill="none" stroke="black" stroke-width="8" stroke-linejoin="round">
        <use href="#relay-stacked-blade"/>
        <use href="#relay-stacked-blade" transform="rotate(60 256 256)"/>
        <use href="#relay-stacked-blade" transform="rotate(120 256 256)"/>
        <use href="#relay-stacked-blade" transform="rotate(180 256 256)"/>
        <use href="#relay-stacked-blade" transform="rotate(240 256 256)"/>
        <use href="#relay-stacked-blade" transform="rotate(300 256 256)"/>
      </g>
      <circle cx="256" cy="256" r="82" fill="black"/>
    </mask>
  </defs>
  <rect class="relay-ink" width="512" height="512" mask="url(#relay-stacked-cutout)"/>
  <text class="relay-ink" x="256" y="645" text-anchor="middle" font-family="Inter, ui-sans-serif, -apple-system, BlinkMacSystemFont, 'Segoe UI', sans-serif" font-size="142" font-weight="600" letter-spacing="-7">Relay</text>
</svg>
